<svg width="1440" height="181" viewBox="0 0 1440 181" fill="none" xmlns="http://www.w3.org/2000/svg">
<g style="mix-blend-mode:luminosity" filter="url(#filter0_i_4_21)">
<path d="M139.551 61.5C139.551 72.1667 137.051 81.9167 132.051 90.75C127.217 99.4167 119.801 106.417 109.801 111.75C99.9675 116.917 87.8841 119.5 73.5508 119.5H49.3008V179H0.300782V2.74999H73.5508C87.7175 2.74999 99.7175 5.24999 109.551 10.25C119.551 15.25 127.051 22.1667 132.051 31C137.051 39.8333 139.551 50 139.551 61.5ZM68.8008 80.5C82.6341 80.5 89.5508 74.1667 89.5508 61.5C89.5508 48.6667 82.6341 42.25 68.8008 42.25H49.3008V80.5H68.8008ZM338.736 180.75C322.236 180.75 307.07 176.917 293.236 169.25C279.403 161.417 268.403 150.667 260.236 137C252.236 123.167 248.236 107.583 248.236 90.25C248.236 72.9167 252.236 57.4167 260.236 43.75C268.403 29.9167 279.403 19.1667 293.236 11.5C307.07 3.83333 322.236 -5.126e-06 338.736 -5.126e-06C355.403 -5.126e-06 370.57 3.83333 384.236 11.5C398.07 19.1667 408.986 29.9167 416.986 43.75C424.986 57.4167 428.986 72.9167 428.986 90.25C428.986 107.583 424.986 123.167 416.986 137C408.986 150.667 398.07 161.417 384.236 169.25C370.403 176.917 355.236 180.75 338.736 180.75ZM338.736 135.25C351.236 135.25 361.07 131.167 368.236 123C375.57 114.833 379.236 103.917 379.236 90.25C379.236 76.25 375.57 65.25 368.236 57.25C361.07 49.0833 351.236 45 338.736 45C326.07 45 316.153 49.0833 308.986 57.25C301.82 65.25 298.236 76.25 298.236 90.25C298.236 104.083 301.82 115.083 308.986 123.25C316.153 131.25 326.07 135.25 338.736 135.25ZM635.264 179L600.264 114H595.014V179H546.014V2.74999H623.264C637.43 2.74999 649.43 5.24999 659.264 10.25C669.097 15.0833 676.514 21.8333 681.514 30.5C686.514 39 689.014 48.5833 689.014 59.25C689.014 71.25 685.68 81.8333 679.014 91C672.514 100 662.93 106.417 650.264 110.25L690.014 179H635.264ZM595.014 80.5H619.264C625.93 80.5 630.93 78.9167 634.264 75.75C637.597 72.5833 639.264 68 639.264 62C639.264 56.3333 637.514 51.9167 634.014 48.75C630.68 45.4167 625.764 43.75 619.264 43.75H595.014V80.5ZM939.047 2.74999V41.75H892.047V179H843.047V41.75H796.547V2.74999H939.047ZM1163.68 150.25H1101.18L1091.68 179H1040.18L1104.43 2.74999H1160.93L1224.93 179H1173.18L1163.68 150.25ZM1151.43 112.75L1132.43 55.75L1113.68 112.75H1151.43ZM1384.9 141.5H1439.65V179H1335.9V2.74999H1384.9V141.5Z" fill="white"/>
</g>
<defs>
<filter id="filter0_i_4_21" x="0.300781" y="0" width="1443.35" height="184.75" filterUnits="userSpaceOnUse" color-interpolation-filters="sRGB">
<feFlood flood-opacity="0" result="BackgroundImageFix"/>
<feBlend mode="normal" in="SourceGraphic" in2="BackgroundImageFix" result="shape"/>
<feColorMatrix in="SourceAlpha" type="matrix" values="0 0 0 0 0 0 0 0 0 0 0 0 0 0 0 0 0 0 127 0" result="hardAlpha"/>
<feOffset dx="4" dy="4"/>
<feGaussianBlur stdDeviation="50"/>
<feComposite in2="hardAlpha" operator="arithmetic" k2="-1" k3="1"/>
<feColorMatrix type="matrix" values="0 0 0 0 0 0 0 0 0 0 0 0 0 0 0 0 0 0 0.25 0"/>
<feBlend mode="normal" in2="shape" result="effect1_innerShadow_4_21"/>
</filter>
</defs>
</svg>
