<svg width="514" height="514" viewBox="0 0 514 514" fill="none" xmlns="http://www.w3.org/2000/svg">
<g clip-path="url(#clip0_84_29)">
<path d="M514 0H0V514H514V0Z" fill="#ECB75C"/>
<path d="M122.659 171.902C123.088 167.663 121.472 163.474 118.307 160.621L86.0654 121.781V115.979H186.174L263.553 285.681L331.582 115.979H427.015V121.781L399.449 148.212C397.073 150.023 395.894 153 396.386 155.947V350.145C395.894 353.092 397.073 356.069 399.449 357.881L426.371 384.311V390.113H290.958V384.311L318.846 357.236C321.587 354.496 321.587 353.691 321.587 349.5V192.531L244.047 389.468H233.569L143.293 192.531V324.521C142.541 330.07 144.384 335.657 148.291 339.67L184.562 383.666V389.468H81.7129V383.666L117.984 339.67C121.863 335.65 123.598 330.026 122.659 324.521V171.902Z" fill="#19131C"/>
</g>
<defs>
<clipPath id="clip0_84_29">
<rect width="514" height="514" fill="white"/>
</clipPath>
</defs>
</svg>
