<svg width="527" height="408" viewBox="0 0 527 408" fill="none" xmlns="http://www.w3.org/2000/svg">
<g clip-path="url(#clip0_84_14)">
<mask id="mask0_84_14" style="mask-type:luminance" maskUnits="userSpaceOnUse" x="0" y="0" width="527" height="408">
<path d="M527 0H0V408H527V0Z" fill="white"/>
</mask>
<g mask="url(#mask0_84_14)">
<path d="M446.128 36.3328C412.539 20.9297 376.519 9.58137 338.859 3.08171C338.173 2.95627 337.488 3.26975 337.135 3.89674C332.502 12.131 327.371 22.8733 323.778 31.3166C283.271 25.256 242.973 25.256 203.297 31.3166C199.703 22.6856 194.386 12.131 189.733 3.89674C189.379 3.29067 188.694 2.97719 188.008 3.08171C150.369 9.5606 114.349 20.9089 80.7394 36.3328C80.4484 36.4582 80.199 36.6674 80.0335 36.9389C11.7124 138.949 -7.00362 238.452 2.17783 336.722C2.21937 337.202 2.48941 337.662 2.86332 337.955C47.9396 371.038 91.6037 391.123 134.457 404.436C135.143 404.645 135.87 404.394 136.306 403.83C146.443 389.995 155.479 375.407 163.227 360.066C163.684 359.168 163.248 358.102 162.313 357.746C147.98 352.312 134.332 345.687 121.204 338.164C120.166 337.558 120.083 336.073 121.038 335.363C123.8 333.294 126.564 331.141 129.202 328.967C129.679 328.571 130.344 328.487 130.905 328.738C217.152 368.092 310.525 368.092 395.754 328.738C396.315 328.466 396.98 328.55 397.478 328.947C400.117 331.12 402.88 333.294 405.663 335.363C406.618 336.073 406.556 337.558 405.518 338.164C392.389 345.833 378.742 352.312 364.388 357.726C363.453 358.081 363.038 359.168 363.495 360.066C371.409 375.385 380.445 389.973 390.395 403.809C390.811 404.394 391.558 404.645 392.244 404.436C435.305 391.123 478.969 371.038 524.045 337.955C524.44 337.662 524.689 337.223 524.731 336.742C535.719 223.132 506.326 124.445 446.813 36.9597C446.667 36.6674 446.419 36.4582 446.128 36.3328ZM176.106 276.886C150.14 276.886 128.745 253.061 128.745 223.801C128.745 194.542 149.725 170.717 176.106 170.717C202.695 170.717 223.883 194.751 223.467 223.801C223.467 253.061 202.487 276.886 176.106 276.886ZM351.218 276.886C325.253 276.886 303.857 253.061 303.857 223.801C303.857 194.542 324.837 170.717 351.218 170.717C377.807 170.717 398.995 194.751 398.58 223.801C398.58 253.061 377.807 276.886 351.218 276.886Z" fill="#ECB75C"/>
</g>
</g>
<defs>
<clipPath id="clip0_84_14">
<rect width="527" height="408" fill="white"/>
</clipPath>
</defs>
</svg>
