<svg width="800" height="800" viewBox="0 0 800 800" fill="none" xmlns="http://www.w3.org/2000/svg">
<path d="M149.384 390.723L269.108 435.406L315.449 584.439C318.415 593.979 330.086 597.507 337.831 591.173L404.569 536.772C411.563 531.068 421.529 530.787 428.836 536.092L549.207 623.484C557.493 629.504 569.235 624.966 571.312 614.952L659.49 190.811C661.758 179.871 651.013 170.746 640.597 174.776L149.245 364.326C137.118 368.999 137.222 386.167 149.384 390.723ZM307.98 411.622L541.966 267.512C546.169 264.93 550.497 270.616 546.883 273.966L353.78 453.465C346.99 459.78 342.613 468.239 341.372 477.418L334.797 526.166C333.922 532.673 324.783 533.316 322.984 527.018L297.686 438.126C294.791 427.988 299.012 417.156 307.98 411.622Z" fill="#ECB75C"/>
</svg>
